G04 #@! TF.FileFunction,Copper,L2,Bot,Signal*
%FSLAX46Y46*%
G04 Gerber Fmt 4.6, Leading zero omitted, Abs format (unit mm)*
G04 Created by KiCad (PCBNEW 4.0.7) date 04/11/18 21:21:16*
%MOMM*%
%LPD*%
G01*
G04 APERTURE LIST*
%ADD10C,0.100000*%
%ADD11C,5.000000*%
%ADD12R,1.800000X1.800000*%
%ADD13C,1.800000*%
%ADD14R,1.700000X1.700000*%
%ADD15O,1.700000X1.700000*%
%ADD16C,0.250000*%
%ADD17C,1.850000*%
G04 APERTURE END LIST*
D10*
D11*
X133350000Y-77470000D03*
X133350000Y-119380000D03*
X170180000Y-77470000D03*
D12*
X132080000Y-97790000D03*
D13*
X134620000Y-97790000D03*
D12*
X132080000Y-92710000D03*
D13*
X134620000Y-92710000D03*
D12*
X132080000Y-82550000D03*
D13*
X134620000Y-82550000D03*
D12*
X132080000Y-87630000D03*
D13*
X134620000Y-87630000D03*
D14*
X140970000Y-88900000D03*
D15*
X143510000Y-88900000D03*
X140970000Y-91440000D03*
X143510000Y-91440000D03*
X140970000Y-93980000D03*
X143510000Y-93980000D03*
D14*
X132080000Y-107950000D03*
D15*
X134620000Y-107950000D03*
X132080000Y-110490000D03*
X134620000Y-110490000D03*
X132080000Y-113030000D03*
X134620000Y-113030000D03*
D14*
X132080000Y-104140000D03*
D15*
X134620000Y-104140000D03*
D14*
X147320000Y-82550000D03*
D15*
X149860000Y-82550000D03*
D14*
X153670000Y-82550000D03*
D15*
X156210000Y-82550000D03*
D14*
X160020000Y-82550000D03*
D15*
X162560000Y-82550000D03*
D14*
X166370000Y-101600000D03*
D15*
X166370000Y-104140000D03*
D14*
X166370000Y-107950000D03*
D15*
X166370000Y-110490000D03*
D14*
X166370000Y-95250000D03*
D15*
X166370000Y-97790000D03*
D14*
X166370000Y-82550000D03*
D15*
X166370000Y-85090000D03*
D14*
X142240000Y-82550000D03*
D15*
X139700000Y-82550000D03*
D11*
X170180000Y-118745000D03*
D16*
X167545001Y-94139999D02*
X161130001Y-87724999D01*
X166370000Y-97790000D02*
X167545001Y-96614999D01*
X167545001Y-96614999D02*
X167545001Y-94139999D01*
X161130001Y-87724999D02*
X142080001Y-87724999D01*
X141819999Y-90590001D02*
X140970000Y-91440000D01*
X142080001Y-87724999D02*
X142145001Y-87789999D01*
X142145001Y-87789999D02*
X142145001Y-90264999D01*
X142145001Y-90264999D02*
X141819999Y-90590001D01*
X134620000Y-113030000D02*
X135795001Y-111854999D01*
X135795001Y-111854999D02*
X135795001Y-102655001D01*
X135795001Y-102655001D02*
X132080000Y-98940000D01*
X132080000Y-98940000D02*
X132080000Y-97790000D01*
X166370000Y-104140000D02*
X165194999Y-105315001D01*
X165194999Y-105315001D02*
X165194999Y-109314999D01*
X165194999Y-109314999D02*
X165520001Y-109640001D01*
X165520001Y-109640001D02*
X166370000Y-110490000D01*
X143510000Y-91440000D02*
X140970000Y-91440000D01*
X140970000Y-91440000D02*
X132200000Y-91440000D01*
X132200000Y-91440000D02*
X132080000Y-91560000D01*
X132080000Y-91560000D02*
X132080000Y-92710000D01*
X132080000Y-82550000D02*
X132080000Y-81400000D01*
X132080000Y-81400000D02*
X132155001Y-81324999D01*
X132155001Y-81324999D02*
X138474999Y-81324999D01*
X138474999Y-81324999D02*
X138850001Y-81700001D01*
X138850001Y-81700001D02*
X139700000Y-82550000D01*
X132080000Y-87630000D02*
X132080000Y-82550000D01*
X132080000Y-92710000D02*
X132080000Y-87630000D01*
X132080000Y-97790000D02*
X132080000Y-92710000D01*
D17*
X163990000Y-77470000D02*
X152016998Y-77470000D01*
X152016998Y-77470000D02*
X147320000Y-82166998D01*
X147320000Y-82166998D02*
X147320000Y-82550000D01*
X166370000Y-82550000D02*
X166370000Y-79850000D01*
X166370000Y-79850000D02*
X163990000Y-77470000D01*
X166370000Y-82550000D02*
X165805001Y-83114999D01*
X165805001Y-83114999D02*
X164918003Y-83114999D01*
X164918003Y-83114999D02*
X163508001Y-84525001D01*
X163508001Y-84525001D02*
X155261999Y-84525001D01*
X155261999Y-84525001D02*
X153670000Y-82933002D01*
X153670000Y-82933002D02*
X153670000Y-82550000D01*
X166370000Y-82550000D02*
X164394999Y-80574999D01*
X164394999Y-80574999D02*
X161611999Y-80574999D01*
X161611999Y-80574999D02*
X160020000Y-82166998D01*
X160020000Y-82166998D02*
X160020000Y-82550000D01*
D16*
X134620000Y-107950000D02*
X133444999Y-109125001D01*
X133444999Y-109125001D02*
X133444999Y-113594001D01*
X133444999Y-113594001D02*
X134055999Y-114205001D01*
X134055999Y-114205001D02*
X146314999Y-114205001D01*
X146314999Y-114205001D02*
X165270000Y-95250000D01*
X165270000Y-95250000D02*
X166370000Y-95250000D01*
X143510000Y-88900000D02*
X161120000Y-88900000D01*
X161120000Y-88900000D02*
X166370000Y-94150000D01*
X166370000Y-94150000D02*
X166370000Y-95250000D01*
M02*
