G04 #@! TF.FileFunction,Soldermask,Top*
%FSLAX46Y46*%
G04 Gerber Fmt 4.6, Leading zero omitted, Abs format (unit mm)*
G04 Created by KiCad (PCBNEW 4.0.7) date 04/11/18 21:21:16*
%MOMM*%
%LPD*%
G01*
G04 APERTURE LIST*
%ADD10C,0.100000*%
%ADD11C,5.400000*%
%ADD12R,2.200000X2.200000*%
%ADD13C,2.200000*%
%ADD14R,2.100000X2.100000*%
%ADD15O,2.100000X2.100000*%
%ADD16R,0.950000X1.500000*%
%ADD17R,0.850000X1.100000*%
%ADD18R,1.873200X0.908000*%
%ADD19R,0.908000X1.873200*%
%ADD20R,2.020000X2.580000*%
G04 APERTURE END LIST*
D10*
D11*
X133350000Y-77470000D03*
X133350000Y-119380000D03*
X170180000Y-77470000D03*
D12*
X132080000Y-97790000D03*
D13*
X134620000Y-97790000D03*
D12*
X132080000Y-92710000D03*
D13*
X134620000Y-92710000D03*
D12*
X132080000Y-82550000D03*
D13*
X134620000Y-82550000D03*
D12*
X132080000Y-87630000D03*
D13*
X134620000Y-87630000D03*
D14*
X140970000Y-88900000D03*
D15*
X143510000Y-88900000D03*
X140970000Y-91440000D03*
X143510000Y-91440000D03*
X140970000Y-93980000D03*
X143510000Y-93980000D03*
D14*
X132080000Y-107950000D03*
D15*
X134620000Y-107950000D03*
X132080000Y-110490000D03*
X134620000Y-110490000D03*
X132080000Y-113030000D03*
X134620000Y-113030000D03*
D14*
X132080000Y-104140000D03*
D15*
X134620000Y-104140000D03*
D16*
X161610000Y-95310000D03*
X162560000Y-95310000D03*
X163510000Y-95310000D03*
X163510000Y-92710000D03*
X162560000Y-92710000D03*
X161610000Y-92710000D03*
D17*
X159990000Y-107950000D03*
X161290000Y-107950000D03*
X160640000Y-105950000D03*
D16*
X150500000Y-95310000D03*
X151450000Y-95310000D03*
X152400000Y-95310000D03*
X152400000Y-92710000D03*
X151450000Y-92710000D03*
X150500000Y-92710000D03*
D17*
X159990000Y-104140000D03*
X161290000Y-104140000D03*
X160640000Y-102140000D03*
D16*
X156210000Y-95310000D03*
X157160000Y-95310000D03*
X158110000Y-95310000D03*
X158110000Y-92710000D03*
X157160000Y-92710000D03*
X156210000Y-92710000D03*
D18*
X140881100Y-101955600D03*
X140881100Y-102743000D03*
X140881100Y-103555800D03*
X140881100Y-104343200D03*
X140881100Y-105156000D03*
X140881100Y-105943400D03*
X140881100Y-106756200D03*
X140881100Y-107543600D03*
X140881100Y-108356400D03*
X140881100Y-109143800D03*
X140881100Y-109956600D03*
X140881100Y-110744000D03*
X140881100Y-111556800D03*
X140881100Y-112344200D03*
X140881100Y-113157000D03*
X140881100Y-113944400D03*
D19*
X142506700Y-115570000D03*
X143294100Y-115570000D03*
X144106900Y-115570000D03*
X144894300Y-115570000D03*
X145707100Y-115570000D03*
X146494500Y-115570000D03*
X147307300Y-115570000D03*
X148094700Y-115570000D03*
X148907500Y-115570000D03*
X149694900Y-115570000D03*
X150507700Y-115570000D03*
X151295100Y-115570000D03*
X152107900Y-115570000D03*
X152895300Y-115570000D03*
X153708100Y-115570000D03*
X154495500Y-115570000D03*
D18*
X156121100Y-113944400D03*
X156121100Y-113157000D03*
X156121100Y-112344200D03*
X156121100Y-111556800D03*
X156121100Y-110744000D03*
X156121100Y-109956600D03*
X156121100Y-109143800D03*
X156121100Y-108356400D03*
X156121100Y-107543600D03*
X156121100Y-106756200D03*
X156121100Y-105943400D03*
X156121100Y-105156000D03*
X156121100Y-104343200D03*
X156121100Y-103555800D03*
X156121100Y-102743000D03*
X156121100Y-101955600D03*
D19*
X154495500Y-100330000D03*
X153708100Y-100330000D03*
X152895300Y-100330000D03*
X152107900Y-100330000D03*
X151295100Y-100330000D03*
X150507700Y-100330000D03*
X149694900Y-100330000D03*
X148907500Y-100330000D03*
X148094700Y-100330000D03*
X147307300Y-100330000D03*
X146494500Y-100330000D03*
X145707100Y-100330000D03*
X144894300Y-100330000D03*
X144106900Y-100330000D03*
X143294100Y-100330000D03*
X142506700Y-100330000D03*
D20*
X153610000Y-88900000D03*
X156210000Y-88900000D03*
X147260000Y-88900000D03*
X149860000Y-88900000D03*
X160020000Y-88900000D03*
X162620000Y-88900000D03*
D14*
X147320000Y-82550000D03*
D15*
X149860000Y-82550000D03*
D14*
X153670000Y-82550000D03*
D15*
X156210000Y-82550000D03*
D14*
X160020000Y-82550000D03*
D15*
X162560000Y-82550000D03*
D14*
X166370000Y-101600000D03*
D15*
X166370000Y-104140000D03*
D14*
X166370000Y-107950000D03*
D15*
X166370000Y-110490000D03*
D14*
X166370000Y-95250000D03*
D15*
X166370000Y-97790000D03*
D14*
X166370000Y-82550000D03*
D15*
X166370000Y-85090000D03*
D14*
X142240000Y-82550000D03*
D15*
X139700000Y-82550000D03*
D11*
X170180000Y-118745000D03*
M02*
