M48
METRIC,TZ
T1C0.900
T2C1.000
T3C3.200
%
G90
G05
T1
X132.08Y-82.55
X132.08Y-87.63
X132.08Y-92.71
X132.08Y-97.79
X134.62Y-82.55
X134.62Y-87.63
X134.62Y-92.71
X134.62Y-97.79
T2
X132.08Y-104.14
X132.08Y-107.95
X132.08Y-110.49
X132.08Y-113.03
X134.62Y-104.14
X134.62Y-107.95
X134.62Y-110.49
X134.62Y-113.03
X139.7Y-82.55
X140.97Y-88.9
X140.97Y-91.44
X140.97Y-93.98
X142.24Y-82.55
X143.51Y-88.9
X143.51Y-91.44
X143.51Y-93.98
X147.32Y-82.55
X149.86Y-82.55
X153.67Y-82.55
X156.21Y-82.55
X160.02Y-82.55
X162.56Y-82.55
X166.37Y-82.55
X166.37Y-85.09
X166.37Y-95.25
X166.37Y-97.79
X166.37Y-101.6
X166.37Y-104.14
X166.37Y-107.95
X166.37Y-110.49
T3
X133.35Y-77.47
X133.35Y-119.38
X170.18Y-77.47
X170.18Y-118.745
T0
M30
