G04 #@! TF.FileFunction,Copper,L1,Top,Signal*
%FSLAX46Y46*%
G04 Gerber Fmt 4.6, Leading zero omitted, Abs format (unit mm)*
G04 Created by KiCad (PCBNEW 4.0.7) date 04/11/18 21:21:16*
%MOMM*%
%LPD*%
G01*
G04 APERTURE LIST*
%ADD10C,0.100000*%
%ADD11C,5.000000*%
%ADD12R,1.800000X1.800000*%
%ADD13C,1.800000*%
%ADD14R,1.700000X1.700000*%
%ADD15O,1.700000X1.700000*%
%ADD16R,0.550000X1.100000*%
%ADD17R,0.450000X0.700000*%
%ADD18R,1.473200X0.508000*%
%ADD19R,0.508000X1.473200*%
%ADD20R,1.620000X2.180000*%
%ADD21C,0.500000*%
%ADD22C,0.250000*%
%ADD23C,1.850000*%
%ADD24C,2.500000*%
G04 APERTURE END LIST*
D10*
D11*
X133350000Y-77470000D03*
X133350000Y-119380000D03*
X170180000Y-77470000D03*
D12*
X132080000Y-97790000D03*
D13*
X134620000Y-97790000D03*
D12*
X132080000Y-92710000D03*
D13*
X134620000Y-92710000D03*
D12*
X132080000Y-82550000D03*
D13*
X134620000Y-82550000D03*
D12*
X132080000Y-87630000D03*
D13*
X134620000Y-87630000D03*
D14*
X140970000Y-88900000D03*
D15*
X143510000Y-88900000D03*
X140970000Y-91440000D03*
X143510000Y-91440000D03*
X140970000Y-93980000D03*
X143510000Y-93980000D03*
D14*
X132080000Y-107950000D03*
D15*
X134620000Y-107950000D03*
X132080000Y-110490000D03*
X134620000Y-110490000D03*
X132080000Y-113030000D03*
X134620000Y-113030000D03*
D14*
X132080000Y-104140000D03*
D15*
X134620000Y-104140000D03*
D16*
X161610000Y-95310000D03*
X162560000Y-95310000D03*
X163510000Y-95310000D03*
X163510000Y-92710000D03*
X162560000Y-92710000D03*
X161610000Y-92710000D03*
D17*
X159990000Y-107950000D03*
X161290000Y-107950000D03*
X160640000Y-105950000D03*
D16*
X150500000Y-95310000D03*
X151450000Y-95310000D03*
X152400000Y-95310000D03*
X152400000Y-92710000D03*
X151450000Y-92710000D03*
X150500000Y-92710000D03*
D17*
X159990000Y-104140000D03*
X161290000Y-104140000D03*
X160640000Y-102140000D03*
D16*
X156210000Y-95310000D03*
X157160000Y-95310000D03*
X158110000Y-95310000D03*
X158110000Y-92710000D03*
X157160000Y-92710000D03*
X156210000Y-92710000D03*
D18*
X140881100Y-101955600D03*
X140881100Y-102743000D03*
X140881100Y-103555800D03*
X140881100Y-104343200D03*
X140881100Y-105156000D03*
X140881100Y-105943400D03*
X140881100Y-106756200D03*
X140881100Y-107543600D03*
X140881100Y-108356400D03*
X140881100Y-109143800D03*
X140881100Y-109956600D03*
X140881100Y-110744000D03*
X140881100Y-111556800D03*
X140881100Y-112344200D03*
X140881100Y-113157000D03*
X140881100Y-113944400D03*
D19*
X142506700Y-115570000D03*
X143294100Y-115570000D03*
X144106900Y-115570000D03*
X144894300Y-115570000D03*
X145707100Y-115570000D03*
X146494500Y-115570000D03*
X147307300Y-115570000D03*
X148094700Y-115570000D03*
X148907500Y-115570000D03*
X149694900Y-115570000D03*
X150507700Y-115570000D03*
X151295100Y-115570000D03*
X152107900Y-115570000D03*
X152895300Y-115570000D03*
X153708100Y-115570000D03*
X154495500Y-115570000D03*
D18*
X156121100Y-113944400D03*
X156121100Y-113157000D03*
X156121100Y-112344200D03*
X156121100Y-111556800D03*
X156121100Y-110744000D03*
X156121100Y-109956600D03*
X156121100Y-109143800D03*
X156121100Y-108356400D03*
X156121100Y-107543600D03*
X156121100Y-106756200D03*
X156121100Y-105943400D03*
X156121100Y-105156000D03*
X156121100Y-104343200D03*
X156121100Y-103555800D03*
X156121100Y-102743000D03*
X156121100Y-101955600D03*
D19*
X154495500Y-100330000D03*
X153708100Y-100330000D03*
X152895300Y-100330000D03*
X152107900Y-100330000D03*
X151295100Y-100330000D03*
X150507700Y-100330000D03*
X149694900Y-100330000D03*
X148907500Y-100330000D03*
X148094700Y-100330000D03*
X147307300Y-100330000D03*
X146494500Y-100330000D03*
X145707100Y-100330000D03*
X144894300Y-100330000D03*
X144106900Y-100330000D03*
X143294100Y-100330000D03*
X142506700Y-100330000D03*
D20*
X153610000Y-88900000D03*
X156210000Y-88900000D03*
X147260000Y-88900000D03*
X149860000Y-88900000D03*
X160020000Y-88900000D03*
X162620000Y-88900000D03*
D14*
X147320000Y-82550000D03*
D15*
X149860000Y-82550000D03*
D14*
X153670000Y-82550000D03*
D15*
X156210000Y-82550000D03*
D14*
X160020000Y-82550000D03*
D15*
X162560000Y-82550000D03*
D14*
X166370000Y-101600000D03*
D15*
X166370000Y-104140000D03*
D14*
X166370000Y-107950000D03*
D15*
X166370000Y-110490000D03*
D14*
X166370000Y-95250000D03*
D15*
X166370000Y-97790000D03*
D14*
X166370000Y-82550000D03*
D15*
X166370000Y-85090000D03*
D14*
X142240000Y-82550000D03*
D15*
X139700000Y-82550000D03*
D11*
X170180000Y-118745000D03*
D21*
X157784990Y-94085010D02*
X156210000Y-94085010D01*
X156210000Y-94085010D02*
X151130000Y-94085010D01*
X163510000Y-92710000D02*
X163510000Y-93760000D01*
X163510000Y-93760000D02*
X163184990Y-94085010D01*
X163184990Y-94085010D02*
X156210000Y-94085010D01*
X152074990Y-94085010D02*
X151130000Y-94085010D01*
X151130000Y-94085010D02*
X146155010Y-94085010D01*
X158110000Y-92710000D02*
X158110000Y-93760000D01*
X158110000Y-93760000D02*
X157784990Y-94085010D01*
X152400000Y-92710000D02*
X152400000Y-93760000D01*
X152400000Y-93760000D02*
X152074990Y-94085010D01*
X146155010Y-94085010D02*
X144359999Y-92289999D01*
X144359999Y-92289999D02*
X143510000Y-91440000D01*
D22*
X166370000Y-110490000D02*
X160020000Y-116840000D01*
X160020000Y-116840000D02*
X146777900Y-116840000D01*
X146777900Y-116840000D02*
X146494500Y-116556600D01*
X146494500Y-116556600D02*
X146494500Y-115570000D01*
X166370000Y-97790000D02*
X167545001Y-98965001D01*
X167545001Y-98965001D02*
X167545001Y-109314999D01*
X167545001Y-109314999D02*
X166370000Y-110490000D01*
X143294100Y-100330000D02*
X143294100Y-101316600D01*
X143294100Y-101316600D02*
X151295100Y-109317600D01*
X151295100Y-109317600D02*
X151295100Y-109782800D01*
X146494500Y-115570000D02*
X146494500Y-114583400D01*
X146494500Y-114583400D02*
X151295100Y-109782800D01*
X151295100Y-109782800D02*
X151295100Y-101316600D01*
X151295100Y-101316600D02*
X151295100Y-100330000D01*
X134620000Y-97790000D02*
X136098399Y-99268399D01*
X136098399Y-99268399D02*
X144819299Y-99268399D01*
X144819299Y-99268399D02*
X144894300Y-99343400D01*
X144894300Y-99343400D02*
X144894300Y-100330000D01*
D23*
X150500000Y-92710000D02*
X150500000Y-89540000D01*
X150500000Y-89540000D02*
X149860000Y-88900000D01*
X149860000Y-82550000D02*
X149860000Y-88900000D01*
D22*
X149860000Y-89180000D02*
X149860000Y-88900000D01*
D24*
X142240000Y-82550000D02*
X142240000Y-86765998D01*
X142240000Y-86765998D02*
X140970000Y-88035998D01*
X140970000Y-88035998D02*
X140970000Y-88900000D01*
X162560000Y-78740000D02*
X166370000Y-82550000D01*
X146050000Y-78740000D02*
X162560000Y-78740000D01*
X142240000Y-82550000D02*
X146050000Y-78740000D01*
D22*
X134620000Y-92710000D02*
X140728390Y-98818390D01*
X140728390Y-98818390D02*
X145182090Y-98818390D01*
X145182090Y-98818390D02*
X145707100Y-99343400D01*
X145707100Y-99343400D02*
X145707100Y-100330000D01*
X161290000Y-107950000D02*
X166370000Y-107950000D01*
D23*
X156210000Y-88900000D02*
X156210000Y-92710000D01*
D22*
X156210000Y-88900000D02*
X156210000Y-82550000D01*
X156210000Y-89180000D02*
X156210000Y-88900000D01*
X134620000Y-82550000D02*
X136340010Y-84270010D01*
X136340010Y-93157190D02*
X141101190Y-97918370D01*
X136340010Y-84270010D02*
X136340010Y-93157190D01*
X141101190Y-97918370D02*
X145882270Y-97918370D01*
X145882270Y-97918370D02*
X147307300Y-99343400D01*
X147307300Y-99343400D02*
X147307300Y-100330000D01*
D23*
X161610000Y-92710000D02*
X161610000Y-91759998D01*
X161610000Y-91759998D02*
X162620000Y-90749998D01*
X162620000Y-90749998D02*
X162620000Y-88900000D01*
D22*
X162620000Y-88900000D02*
X162620000Y-82610000D01*
X162620000Y-82610000D02*
X162560000Y-82550000D01*
X162620000Y-89180000D02*
X162620000Y-88900000D01*
X134620000Y-87630000D02*
X135845001Y-88855001D01*
X135845001Y-88855001D02*
X135845001Y-93298591D01*
X135845001Y-93298591D02*
X140914790Y-98368380D01*
X140914790Y-98368380D02*
X145519480Y-98368380D01*
X145519480Y-98368380D02*
X146494500Y-99343400D01*
X146494500Y-99343400D02*
X146494500Y-100330000D01*
X160640000Y-102140000D02*
X160640000Y-99880000D01*
X160640000Y-99880000D02*
X165270000Y-95250000D01*
X165270000Y-95250000D02*
X166370000Y-95250000D01*
X166370000Y-95250000D02*
X167470000Y-95250000D01*
X167470000Y-95250000D02*
X167995010Y-95775010D01*
X167995010Y-95775010D02*
X167995010Y-110603992D01*
X167995010Y-110603992D02*
X161308992Y-117290010D01*
X161308992Y-117290010D02*
X146440510Y-117290010D01*
X146440510Y-117290010D02*
X145707100Y-116556600D01*
X152895300Y-100330000D02*
X152895300Y-99343400D01*
X152895300Y-99343400D02*
X150186911Y-96635011D01*
X150186911Y-96635011D02*
X143625011Y-96635011D01*
X143625011Y-96635011D02*
X141819999Y-94829999D01*
X141819999Y-94829999D02*
X140970000Y-93980000D01*
X153708100Y-100330000D02*
X153708100Y-99343400D01*
X153708100Y-99343400D02*
X150549701Y-96185001D01*
X150549701Y-96185001D02*
X145715001Y-96185001D01*
X145715001Y-96185001D02*
X144359999Y-94829999D01*
X144359999Y-94829999D02*
X143510000Y-93980000D01*
X132080000Y-107950000D02*
X130980000Y-107950000D01*
X130980000Y-107950000D02*
X130904999Y-108025001D01*
X130904999Y-108025001D02*
X130904999Y-111054001D01*
X130904999Y-111054001D02*
X131515999Y-111665001D01*
X131515999Y-111665001D02*
X139786299Y-111665001D01*
X139786299Y-111665001D02*
X139894500Y-111556800D01*
X139894500Y-111556800D02*
X140881100Y-111556800D01*
X132080000Y-110490000D02*
X133350000Y-109220000D01*
X133350000Y-109220000D02*
X139157900Y-109220000D01*
X139157900Y-109220000D02*
X139894500Y-109956600D01*
X139894500Y-109956600D02*
X140881100Y-109956600D01*
X134620000Y-110490000D02*
X135822081Y-110490000D01*
X135822081Y-110490000D02*
X136076081Y-110744000D01*
X139894500Y-110744000D02*
X140881100Y-110744000D01*
X136076081Y-110744000D02*
X139894500Y-110744000D01*
X132080000Y-113030000D02*
X135890000Y-116840000D01*
X135890000Y-116840000D02*
X144610900Y-116840000D01*
X144610900Y-116840000D02*
X144894300Y-116556600D01*
X144894300Y-116556600D02*
X144894300Y-115570000D01*
X132080000Y-104140000D02*
X132080000Y-103040000D01*
X132080000Y-103040000D02*
X132377000Y-102743000D01*
X132377000Y-102743000D02*
X139894500Y-102743000D01*
X139894500Y-102743000D02*
X140881100Y-102743000D01*
X134620000Y-104140000D02*
X135822081Y-104140000D01*
X135822081Y-104140000D02*
X136406281Y-103555800D01*
X136406281Y-103555800D02*
X139894500Y-103555800D01*
X139894500Y-103555800D02*
X140881100Y-103555800D01*
X161290000Y-104140000D02*
X163830000Y-104140000D01*
X163830000Y-104140000D02*
X166370000Y-101600000D01*
X156121100Y-102743000D02*
X157107700Y-102743000D01*
X157107700Y-102743000D02*
X163510000Y-96340700D01*
X163510000Y-96340700D02*
X163510000Y-96110000D01*
X163510000Y-96110000D02*
X163510000Y-95310000D01*
X156121100Y-104343200D02*
X156983200Y-104343200D01*
X159990000Y-107350000D02*
X159990000Y-107950000D01*
X156983200Y-104343200D02*
X159990000Y-107350000D01*
X152400000Y-95310000D02*
X152400000Y-95585000D01*
X152400000Y-95585000D02*
X154495500Y-97680500D01*
X154495500Y-97680500D02*
X154495500Y-99343400D01*
X154495500Y-99343400D02*
X154495500Y-100330000D01*
X157691900Y-104140000D02*
X159990000Y-104140000D01*
X156121100Y-103555800D02*
X157107700Y-103555800D01*
X157107700Y-103555800D02*
X157691900Y-104140000D01*
X158110000Y-95310000D02*
X158110000Y-100449300D01*
X158110000Y-100449300D02*
X156603700Y-101955600D01*
X156603700Y-101955600D02*
X156121100Y-101955600D01*
X155890000Y-101724500D02*
X156121100Y-101955600D01*
X145707100Y-116556600D02*
X145707100Y-115570000D01*
X145707100Y-115570000D02*
X145707100Y-114583400D01*
X145707100Y-114583400D02*
X142506700Y-111383000D01*
X142506700Y-111383000D02*
X142506700Y-101316600D01*
X142506700Y-101316600D02*
X142506700Y-100330000D01*
M02*
